<svg xmlns="http://www.w3.org/2000/svg" viewBox="0 0 200 200"><defs><style>.cls-1{fill:none;stroke:#9a8331;stroke-miterlimit:10;stroke-width:9.56px;}.cls-2{fill:#9a8331;}</style></defs><title>services-icons-advertising</title><g id="BASE"><circle class="cls-1" cx="100" cy="100.41" r="94"/></g><g id="ADVERTISING"><path class="cls-2" d="M148.81,43.52H49.66a7.11,7.11,0,0,0-7.08,7.08v99.16a7.1,7.1,0,0,0,7.08,7.08h99.15a7.1,7.1,0,0,0,7.09-7.08V50.6A7.11,7.11,0,0,0,148.81,43.52Zm-4,47.57-25.08,18.15a4.14,4.14,0,0,0-1.42,4.35L127.94,143c.49,1.48-.15,1.94-1.41,1l-25-18.27a4.18,4.18,0,0,0-4.58,0L71.94,144c-1.26.91-1.89.45-1.4-1l9.63-29.42a4.14,4.14,0,0,0-1.42-4.35L53.66,91.09c-1.26-.91-1-1.65.54-1.65l31,.06a4.15,4.15,0,0,0,3.7-2.69l9.5-29.46c.48-1.48,1.26-1.48,1.74,0l9.51,29.46a4.14,4.14,0,0,0,3.7,2.69l31-.06C145.84,89.44,146.07,90.18,144.81,91.09Z"/><path class="cls-2" d="M109.49,96.6H88.91a2.85,2.85,0,0,0-2.84,2.84v1.42a2.84,2.84,0,0,0,2.84,2.83h20.58a2.83,2.83,0,0,0,2.83-2.83V99.44A2.84,2.84,0,0,0,109.49,96.6Z"/><path class="cls-2" d="M94.47,108.84h9.45a2.84,2.84,0,0,1,2.84,2.84v1.41a2.84,2.84,0,0,1-2.84,2.84H94.47a2.83,2.83,0,0,1-2.83-2.83v-1.42a2.84,2.84,0,0,1,2.84-2.84Z"/></g></svg>