<svg xmlns="http://www.w3.org/2000/svg" viewBox="0 0 200 200"><defs><style>.cls-1{fill:none;stroke:#9a8331;stroke-miterlimit:10;stroke-width:9.56px;}.cls-2{fill:#9a8331;}</style></defs><title>services-icons-artist-relations</title><g id="BASE"><circle class="cls-1" cx="100" cy="100.41" r="94"/></g><g id="ARTIST_RELATIONS" data-name="ARTIST RELATIONS"><path class="cls-2" d="M147.87,36.14a4.41,4.41,0,0,1,3,1.25L161.52,48a4.26,4.26,0,0,1,.76,5c-9.65,18.43-9.65,18.43-9.73,18.57a4.55,4.55,0,0,1-.76,1,23.27,23.27,0,0,1-9.42,6.06,13.71,13.71,0,0,1-4.4.68L113,104.28l11,4.65a3.23,3.23,0,0,1,1,.68,12.38,12.38,0,0,1,3.86,10.62,12.9,12.9,0,0,1-3.31,7.18,17.28,17.28,0,0,1-7.1,4.12c-5,1.53-6.13,2-7.06,3A13.33,13.33,0,0,0,108,140a29.89,29.89,0,0,0-1.22,6.46,38.39,38.39,0,0,1-1.73,8.68,24.28,24.28,0,0,1-6,9.46c-7.53,7.54-17.31,9.68-28,6.9C61.86,169.05,52.29,163,44,154.72S29.8,137,27.43,127.8c-2.74-10.63-.59-20.4,6.93-27.92a24.48,24.48,0,0,1,9.46-6,38.43,38.43,0,0,1,8.68-1.74A31.75,31.75,0,0,0,59,90.88a13.62,13.62,0,0,0,5.49-3.4,16.66,16.66,0,0,0,2.77-4.09c2.15-4,2.7-5,3.29-6a30.48,30.48,0,0,1,4.56-5.85c3.62-3.59,7.2-5.8,10.67-6.78a16.91,16.91,0,0,1,3.14-.54,12.49,12.49,0,0,1,2.28,0,12.21,12.21,0,0,1,2.4.52,3.21,3.21,0,0,1,1.85,4.49,24.87,24.87,0,0,0-2.33,17.29l.17.68,26.31-26.32a14.29,14.29,0,0,1,.68-4.4,23.27,23.27,0,0,1,6.07-9.42,4,4,0,0,1,1-.77l18.57-9.73a4.88,4.88,0,0,1,2-.48Zm-90,89.34h-.37a3.36,3.36,0,0,0-1.95.92,3.2,3.2,0,0,0,0,4.53L68,143.32a3.2,3.2,0,1,0,4.53-4.52L60.11,126.42a3.56,3.56,0,0,0-2.2-.94Zm10.61-10.61h-.36a3.32,3.32,0,0,0-2,.92,3.19,3.19,0,0,0,0,4.52l12.39,12.39a3.2,3.2,0,0,0,4.52-4.53L70.73,115.8a3.58,3.58,0,0,0-2.21-.93ZM124,68.55l-40,40,6.36,6.36,40-40Zm23.08-22.92-15.18,8a14.81,14.81,0,0,0-3.53,5.47,6.5,6.5,0,0,0-.29,1.51l10.25,10.25a7,7,0,0,0,1.5-.29A14.77,14.77,0,0,0,145.32,67l8-15.18Zm0,0"/></g></svg>