<svg xmlns="http://www.w3.org/2000/svg" viewBox="0 0 200 200"><defs><style>.cls-1{fill:none;stroke:#9a8331;stroke-miterlimit:10;stroke-width:9.56px;}.cls-2{fill:#9a8331;}</style></defs><title>services-icons-emal-marketing</title><g id="BASE"><circle class="cls-1" cx="100" cy="100.41" r="94"/></g><g id="EMAIL_MARKETING" data-name="EMAIL MARKETING"><path class="cls-2" d="M129.56,59.43l0-7a9.76,9.76,0,0,0-9.77-9.73l-63.42.17a9.76,9.76,0,0,0-9.71,9.79L46.93,158a9.74,9.74,0,0,0,9.77,9.71l63.42-.17a9.75,9.75,0,0,0,9.71-9.77l0-14.28a42.48,42.48,0,0,1-7.9-1.9c-.33-.12-.64-.22-1-.37v4l-65.18.18-.24-84.59,65.18-.18v1.08A41.28,41.28,0,0,1,129.56,59.43ZM79.92,154l16.9,0a2.33,2.33,0,1,1,0,4.66l-16.9.05a2.34,2.34,0,0,1,0-4.67Z"/><path class="cls-2" d="M168.39,85.58a36.33,36.33,0,0,0-65.81,30.76,9.24,9.24,0,0,1-.81.57l-5.41,3.67a3.88,3.88,0,0,0-1.87,3.79c.24,1.9,1.75,3.31,4.63,4.33l.3.1a30.87,30.87,0,0,0,7.82,1.7l.63,0c.46,0,.91.08,1.42.08a36.29,36.29,0,0,0,4.47-.23h0a36.31,36.31,0,0,0,45.2-1,36.36,36.36,0,0,0,11.1-16.06A36,36,0,0,0,168.39,85.58Zm-18,28.18c-.61,4.75-3.51,7.95-8.6,9.56a18.48,18.48,0,0,1-2.07.5l-1,.09v5.81l-5.85,0v-5.63l-.44-.12c-8.89-2.15-12.87-6.65-12.2-13.78l.08-.57,9.13,0,.32,2a5,5,0,0,0,4.86,4.75c.29,0,.65,0,1,0l.69,0c2.87-.09,3.93-1.64,4.32-2.92a4.83,4.83,0,0,0-1.66-5.66,27.45,27.45,0,0,0-3.25-1.66c-.56-.25-1.11-.54-1.69-.79-.78-.39-1.59-.77-2.35-1.1a29.43,29.43,0,0,1-5.42-2.89,11.61,11.61,0,0,1-4.81-10.46A11.9,11.9,0,0,1,128,81a24.57,24.57,0,0,1,3.72-1.33l1.6-.5v-6l5.83,0,0,6.21.43.1c4.33,1,7.24,2.89,9.07,6a12.75,12.75,0,0,1,1.63,7.43l0,.53-9.17,0-.28-1.36a12.77,12.77,0,0,0-.47-2.13,4.28,4.28,0,0,0-4.5-3c-3,.09-3.86,1.41-4.27,2.68-.77,2.37-.22,4.62,1.41,5.66a25.83,25.83,0,0,0,3.62,1.89l.23.11c.48.25,1,.48,1.49.68.75.4,1.53.73,2.32,1.11l.38.18a43.15,43.15,0,0,1,4.18,2.12C149.3,103.92,151.13,108.2,150.39,113.76Z"/></g></svg>