<svg xmlns="http://www.w3.org/2000/svg" viewBox="0 0 200 200"><defs><style>.cls-1{fill:none;stroke:#9a8331;stroke-miterlimit:10;stroke-width:9.56px;}.cls-2{fill:#9a8331;}</style></defs><title>services-icons-public-relations</title><g id="BASE"><circle class="cls-1" cx="100" cy="100.41" r="94"/></g><g id="PUBLIC_RELATIONS" data-name="PUBLIC RELATIONS"><path class="cls-2" d="M171.8,130.91,141.48,38.7c-1.4-4.24-5.61-5.73-9.35-3.27l-5,3.27a11.27,11.27,0,0,0-4.71,9.21L45.15,105c-5.68.33-14.18.91-19.93,1.48-1.95.2-2.52,1.5-1.34,3A51.8,51.8,0,0,1,35.2,143.8c-.1,1.87,1.13,2.57,2.82,1.58,4.91-2.92,11.61-7.16,16.32-10.22h5.71v7.37a12.71,12.71,0,0,0,12.7,12.7H94.68a12.71,12.71,0,0,0,12.7-12.7V135.2l43.89,0a11.26,11.26,0,0,0,8.95,4.22l6-.35C170.69,138.85,173.19,135.16,171.8,130.91ZM96.87,142.53a2.22,2.22,0,0,1-2.19,2.2H72.75a2.23,2.23,0,0,1-2.19-2.2v-7.36l26.31,0Zm-42.8-28.59a2.82,2.82,0,0,1-3.92-1.71,4.35,4.35,0,0,1,1.71-4.74l74-47.41,6.24,19Z"/></g></svg>