<svg width="32" height="32" viewBox="0 0 32 32" fill="none" xmlns="http://www.w3.org/2000/svg">
<rect width="32" height="32" rx="6" fill="white"/>
<path d="M20.0941 12.8043C20.0089 12.5836 19.8784 12.3831 19.711 12.2159C19.5436 12.0487 19.343 11.9184 19.1222 11.8334C18.8182 11.7208 18.497 11.6613 18.1728 11.6574C17.6337 11.6329 17.472 11.6268 16.1063 11.6268C14.7405 11.6268 14.5789 11.6329 14.0397 11.6574C13.7152 11.6612 13.3937 11.7207 13.0893 11.8334C12.8686 11.9186 12.6682 12.0491 12.501 12.2165C12.3337 12.3839 12.2034 12.5845 12.1184 12.8053C12.0058 13.1093 11.9463 13.4305 11.9425 13.7547C11.9179 14.2938 11.9118 14.4555 11.9118 15.8212C11.9118 17.187 11.9179 17.3487 11.9425 17.8878C11.9462 18.2123 12.0057 18.5338 12.1184 18.8382C12.2037 19.0589 12.3342 19.2594 12.5016 19.4266C12.669 19.5938 12.8695 19.7241 13.0903 19.8091C13.3944 19.9217 13.7155 19.9812 14.0397 19.985C14.5789 20.0096 14.7405 20.0147 16.1063 20.0147C17.472 20.0147 17.6337 20.0096 18.1728 19.984C18.4973 19.9806 18.8188 19.9215 19.1232 19.8091C19.344 19.7239 19.5444 19.5933 19.7116 19.426C19.8788 19.2586 20.0091 19.058 20.0941 18.8372C20.2067 18.5331 20.2662 18.212 20.2701 17.8878C20.2946 17.3487 20.2997 17.187 20.2997 15.8212C20.2997 14.4555 20.2946 14.2938 20.2691 13.7547C20.2657 13.4302 20.2065 13.1087 20.0941 12.8043V12.8043ZM16.1063 18.4484C15.5867 18.4484 15.0787 18.2943 14.6467 18.0057C14.2147 17.717 13.8779 17.3067 13.6791 16.8266C13.4802 16.3466 13.4282 15.8183 13.5296 15.3087C13.6309 14.7991 13.8812 14.331 14.2486 13.9635C14.616 13.5961 15.0841 13.3459 15.5937 13.2445C16.1034 13.1432 16.6316 13.1952 17.1117 13.394C17.5917 13.5929 18.002 13.9296 18.2907 14.3617C18.5794 14.7937 18.7335 15.3016 18.7335 15.8212C18.7335 16.518 18.4567 17.1862 17.964 17.6789C17.4713 18.1716 16.8031 18.4484 16.1063 18.4484ZM18.8368 13.7046C18.7154 13.7046 18.5967 13.6686 18.4958 13.6011C18.3948 13.5337 18.3161 13.4378 18.2697 13.3256C18.2232 13.2135 18.2111 13.0901 18.2348 12.971C18.2584 12.8519 18.3169 12.7425 18.4028 12.6567C18.4886 12.5708 18.598 12.5124 18.717 12.4887C18.8361 12.465 18.9595 12.4772 19.0717 12.5236C19.1839 12.5701 19.2797 12.6488 19.3472 12.7497C19.4146 12.8507 19.4506 12.9693 19.4506 13.0907C19.4506 13.2535 19.3859 13.4097 19.2708 13.5248C19.1557 13.6399 18.9996 13.7046 18.8368 13.7046V13.7046ZM17.8117 15.8212C17.8117 16.1585 17.7117 16.4883 17.5243 16.7687C17.3369 17.0492 17.0705 17.2678 16.7589 17.3968C16.4473 17.5259 16.1044 17.5597 15.7736 17.4939C15.4428 17.4281 15.1389 17.2657 14.9004 17.0272C14.6619 16.7886 14.4994 16.4848 14.4336 16.154C14.3678 15.8231 14.4016 15.4802 14.5307 15.1686C14.6598 14.857 14.8783 14.5906 15.1588 14.4032C15.4393 14.2158 15.769 14.1158 16.1063 14.1158C16.5586 14.1158 16.9924 14.2955 17.3122 14.6153C17.632 14.9352 17.8117 15.3689 17.8117 15.8212V15.8212ZM16.1063 6C14.1638 6 12.265 6.57601 10.6499 7.65518C9.0348 8.73435 7.77598 10.2682 7.03264 12.0628C6.28929 13.8574 6.0948 15.8321 6.47375 17.7373C6.85271 19.6424 7.78809 21.3924 9.16161 22.7659C10.5351 24.1394 12.2851 25.0748 14.1903 25.4538C16.0954 25.8327 18.0701 25.6382 19.8647 24.8949C21.6593 24.1515 23.1932 22.8927 24.2723 21.2776C25.3515 19.6625 25.9275 17.7637 25.9275 15.8212C25.9275 13.2165 24.8928 10.7184 23.0509 8.87658C21.2091 7.03474 18.711 6 16.1063 6V6ZM21.1908 17.9297C21.1822 18.3542 21.1016 18.7742 20.9525 19.1717C20.8211 19.5115 20.6202 19.82 20.3626 20.0776C20.105 20.3351 19.7965 20.536 19.4568 20.6674C19.0595 20.8164 18.64 20.897 18.2158 20.9058C17.6695 20.9303 17.4956 20.9365 16.1063 20.9365C14.717 20.9365 14.5431 20.9303 13.9968 20.9058C13.5726 20.897 13.153 20.8164 12.7558 20.6674C12.4161 20.536 12.1075 20.3351 11.85 20.0776C11.5924 19.82 11.3915 19.5115 11.2601 19.1717C11.1111 18.7745 11.0305 18.3549 11.0217 17.9308C10.9972 17.3845 10.9911 17.2105 10.9911 15.8212C10.9911 14.4319 10.9972 14.258 11.0217 13.7117C11.0302 13.2876 11.1104 12.868 11.2591 12.4708C11.3905 12.1307 11.5915 11.822 11.8492 11.5642C12.107 11.3064 12.4158 11.1054 12.7558 10.9741C13.1531 10.8254 13.5727 10.7452 13.9968 10.7367C14.5431 10.7122 14.717 10.706 16.1063 10.706C17.4956 10.706 17.6695 10.7122 18.2158 10.7367C18.6399 10.7452 19.0595 10.8254 19.4568 10.9741C19.7966 11.1055 20.1052 11.3066 20.3628 11.5644C20.6203 11.8221 20.8212 12.1308 20.9525 12.4708C21.1014 12.868 21.182 13.2876 21.1908 13.7117C21.2154 14.258 21.2215 14.4319 21.2215 15.8212C21.2215 17.2105 21.2154 17.3845 21.1908 17.9308V17.9297Z" fill="#46013B"/>
</svg>
