<svg id="af5c96ee-a943-4ece-bc87-e7fd327e303e" data-name="Layer 1" xmlns="http://www.w3.org/2000/svg" viewBox="0 0 1617 857.07"><title>logo</title><path d="M429.48,38.63c30.63-2.56,62.3,2,89.87,16,28.92,14.16,52.65,38.1,67.43,66.63C605.64,156.64,611,198,606.36,237.54,602.08,272.85,587.9,307.41,564,334c-21.81,24.38-52,40.73-84.05,46.86-37.73,7-78.25,2.84-112.32-15.49-27-14.14-48.9-37.12-62.86-64.09-16.6-31.19-22.85-67.15-20.91-102.24,1.72-37.69,14.61-75.23,38.49-104.66C348.35,62,388.26,41.9,429.48,38.63Zm2,28a125.23,125.23,0,0,0-76.85,35,133.42,133.42,0,0,0-29.8,45.21c-10.91,26.8-13.9,56.43-10.81,85.08,3.43,31.12,15.55,61.88,37.16,84.89a124.89,124.89,0,0,0,78.65,38.35c19.68,1.84,39.87.47,58.76-5.61a125.42,125.42,0,0,0,49-30c22.31-22.27,35.22-52.72,39.35-83.71,4.84-37.3-.83-76.8-20.48-109.31a123.39,123.39,0,0,0-49.52-46.4C483.94,68,457.2,64.48,431.49,66.66Z" transform="translate(-23 -37.95)" fill="#000"/><path d="M1455.48,38.63c21.75-1.76,43.89-.1,64.86,6.09,27.83,8.35,53.43,24.5,72.27,46.7,23.71,27.74,37.27,63.39,40.41,99.58,1.92,22.57.83,45.53-4.41,67.62-7,29.27-21,57.25-42,79-24,25-57.05,40.77-91.37,44.92-36,4.58-73.89-1-105.54-19.33-27.66-15.54-49.36-40.57-62.59-69.26-17.06-36.19-21-77.65-15-116.94,5.42-33.68,20.14-66.24,43.67-91.14C1381.62,58.4,1418.05,41.66,1455.48,38.63Zm2,28a125.43,125.43,0,0,0-74.29,32.55c-23.76,22-37.85,53.06-42.35,84.84-5.76,39.66.73,82.18,23.07,116a123.79,123.79,0,0,0,67.7,50.35c20.26,6.14,41.89,6.78,62.77,3.93,33.5-4.9,64.65-24.17,83.72-52.19,23-33.3,29.92-75.59,24.93-115.23-4-30.8-16.58-61.09-38.46-83.47a125.41,125.41,0,0,0-49.22-30.75C1496.79,66.54,1476.91,65.07,1457.49,66.66Z" transform="translate(-23 -37.95)" fill="#000"/><path d="M41,46c29.33,0,58.67-.07,88,0,22,.1,44.24,3.43,64.28,12.74,18.1,8.59,31.59,25.36,37.66,44.29,4.52,14.2,4.77,29.41,3.24,44.12a74.08,74.08,0,0,1-30.05,51.94c-14.25,10.6-31.92,14.78-49.07,18,30.09,53.08,60.79,105.83,91,158.88q-16,.13-32,0c-1.45.22-1.89-1.53-2.61-2.41q-43.24-77.28-86.64-154.47-27.27-.18-54.54,0,.08,78.44,0,156.88-14.59.11-29.19,0Q40.91,211,41,46ZM70.22,74.12q.11,58.39,0,116.79c15.26.21,30.53,0,45.79.09,13.07-.09,26.27.54,39.18-1.9a73.22,73.22,0,0,0,28.25-11.62,48.93,48.93,0,0,0,20.28-29.86c3.64-13.45,2-28-3.54-40.69C193.76,93.31,180.79,84,166.91,79.05,155.11,74.81,142.43,74,130,74,110.07,74.1,90.15,73.93,70.22,74.12Z" transform="translate(-23 -37.95)" fill="#000"/><path d="M669.86,46c14.66,0,29.32-.11,44,.06q49.54,120.43,99.35,240.78c5,11.78,9.55,23.77,14.82,35.45C843,287,857.32,251.43,872.08,216c23.33-56.66,46.84-113.25,70.09-169.94C956.1,45.89,970.05,46,984,46q0,165,0,330-14.6.09-29.2,0c-.26-97.05,0-194.11-.16-291.17-2.24,3-3.3,6.63-4.74,10Q903.4,207.91,856.9,321c-7.67,18.34-14.92,36.87-22.84,55.09-4.29,0-8.57.08-12.84-.17Q762.22,234,702.89,92.15a33.67,33.67,0,0,0-3.61-7.35c-.47,22.72-.07,45.47-.2,68.2Q699,264.51,699,376q-14.58.08-29.16,0Q669.66,211,669.86,46Z" transform="translate(-23 -37.95)" fill="#000"/><path d="M1067,46c64,0,127.9-.1,191.85,0q-.1,13.93,0,27.87c-54.2.28-108.4-.07-162.6.18q.09,58.39,0,116.79c50.83.3,101.67-.14,152.5.22q-.21,13.88,0,27.75c-50.82.43-101.66,0-152.49.24q.09,64.39,0,128.79c56.55.24,113.11,0,169.67.14q-.06,13.95,0,27.91-99.45.24-198.89.05Q1066.9,211,1067,46Z" transform="translate(-23 -37.95)" fill="#000"/><path d="M23,406q808.49,0,1617,0,0,146.49,0,293-808.48,0-1617,0Q23,552.5,23,406Zm56,65q0,80.49,0,161,43,0,86,0,0-9,0-18c-23.66,0-47.32,0-71,0q0-28.5,0-57c21,0,42,0,63,0q0-9,0-18c-21,0-42,0-63,0q0-25,0-50c22.66,0,45.32,0,68,0q0-9,0-18Q120.5,471,79,471Zm111,0q0,80.49,0,161,7.49,0,15,0c.09-44.78-.12-89.56.1-134.34a26.91,26.91,0,0,1,4.22,6c24.55,42.8,49.38,85.46,73.83,128.32,6.28,0,12.57,0,18.85,0q0-80.49,0-161-7.5,0-15,0c-.09,44.78.12,89.56-.1,134.34-2.44-2.5-4-5.63-5.64-8.66-6.12-10.56-12-21.21-18.21-31.75C244.87,533.7,227.2,502.14,208.8,471,202.54,471,196.27,471,190,471Zm131,0q0,9,0,18c14.66,0,29.32,0,44,0q0,71.49,0,143,7.49,0,15,0,0-71.49,0-143c14.66,0,29.32,0,44,0q0-9,0-18Q372.5,471,321,471Zm123,0q0,80.49,0,161,43,0,86,0,0-9,0-18c-23.66,0-47.32,0-71,0q0-28.49,0-57c21,0,42,0,63,0q0-9,0-18c-21,0-42,0-63,0q0-25,0-50c22.66,0,45.32,0,68,0q0-9,0-18Q485.5,471,444,471Zm111,0q0,80.49,0,161,7.49,0,15,0c0-24,0-48,0-72,7,0,13.9,0,20.86,0,12.33,23.87,23.92,48.13,36.26,72,6,0,12.08.07,18.12-.06-4.49-10.05-9.81-19.7-14.57-29.62-8.26-14.42-15.06-29.63-22.76-44.36,4.47-1.53,9.23-2.33,13.42-4.62,4.68-2.42,8.38-6.28,11.83-10.19,6.16-7.89,8.29-18.32,7.85-28.15.38-9.63-1.48-19.8-7.3-27.7-6.93-9.79-19.2-14.15-30.72-15.23a59.49,59.49,0,0,1-12-1C579,470.92,567,471,555,471Zm96,0q0,9,0,18c14.66,0,29.32,0,44,0q0,71.49,0,143,7.49,0,15,0,.06-71.49,0-143c14.66-.05,29.32,0,44,0q0-9,0-18Q702.49,471,651,471Zm148.23,0c-1,2.72-2,5.4-3.08,8.1-18.22,51-37.35,101.72-55.42,152.79,5.66.13,11.33.08,17,0,1.25-5.74,3.92-11,5.66-16.59,2.59-7.79,5.12-15.6,7.81-23.35q33.79-.07,67.6,0c4.57,13.28,8.83,26.66,13.4,39.94,5.91.06,11.82,0,17.74,0-16.23-45.25-31.89-90.7-47.94-136-3.43-8.15-5-17.13-9.27-24.87C808.24,470.76,803.73,471.05,799.24,471ZM889,471q0,80.49,0,161,7.49,0,15,0,0-80.49,0-161Q896.49,471,889,471Zm48,0q0,80.49,0,161,7.49,0,15,0c.09-44.78-.12-89.56.1-134.34,4,4.36,6,10.08,9.35,14.92,22.83,39.85,46,79.53,68.7,119.43,6.28,0,12.56,0,18.85,0q0-80.49,0-161-7.5,0-15,0c-.09,44.78.12,89.56-.1,134.34-3.3-3.37-5-7.87-7.46-11.78-10.79-19.16-22-38.07-32.8-57.23-12.8-21.66-24.89-43.75-37.85-65.32C949.54,471,943.27,471,937,471Zm146,0q0,80.49,0,161,7.48,0,15,0c.1-45.13-.15-90.26.12-135.38,2.51,2.4,2.68,6.1,4.17,9.1q21.3,60.63,42.82,121.18c.66,1.66.81,3.68,2.17,5a69.31,69.31,0,0,0,8.53.09c15.33-44.55,31.42-88.82,46.86-133.33a2.47,2.47,0,0,1,2.27-1.92c.17,45.09,0,90.19.08,135.28q7.48,0,15,0,0-80.49,0-161c-7.56,0-15.11-.07-22.66,0-14.2,40.1-28.84,80-43.19,120.07-.75,2.18-1.17,4.61-2.93,6.25a36.71,36.71,0,0,1-1.8-3.75c-14.26-41-29.42-81.6-43.62-122.59C1098.2,471,1090.6,471,1083,471Zm170,0q0,80.49,0,161,43,0,86,0,0-9,0-18c-23.66,0-47.32,0-71,0q0-28.49,0-57c21,0,42,0,63,0q0-9,0-18c-21,0-42,0-63,0q0-25,0-50c22.66,0,45.32,0,68,0q0-9,0-18Q1294.5,471,1253,471Zm112,0q0,80.49,0,161,7.48,0,15,0c.08-44.78-.12-89.56.1-134.34,4,4.35,6,10.08,9.35,14.92,22.83,39.85,46,79.53,68.7,119.43,6.28,0,12.56,0,18.85,0q0-80.49,0-161-7.5,0-15,0c-.09,44.78.12,89.56-.1,134.34-5.28-6.45-8.48-14.32-12.91-21.35-21.78-37.63-43.18-75.5-65.2-113C1377.53,471,1371.27,471,1365,471Zm131,0q0,9,0,18c14.66,0,29.32,0,44,0q.06,71.49,0,143c5,0,10,0,15,0q0-71.49,0-143c14.66,0,29.32,0,44,0q0-9,0-18Q1547.5,471,1496,471Z" transform="translate(-23 -37.95)" fill="#000"/><path d="M570,489c10.33,0,20.66-.06,31,0,8.17.9,17,4.34,21,12a34.61,34.61,0,0,1,2.1,23,20.78,20.78,0,0,1-11.7,14.35A38.78,38.78,0,0,1,594,542c-8-.08-16,0-24,0Q570,515.5,570,489Z" transform="translate(-23 -37.95)" fill="#000"/><path d="M805.34,494.68a9.28,9.28,0,0,1,1.82,3.15c7,21.29,14.16,42.52,21.21,63.8,1.32,4.09,2.94,8.09,3.84,12.31q-27.21.15-54.44,0C786.48,547.38,796.41,521.19,805.34,494.68Z" transform="translate(-23 -37.95)" fill="#000"/><path d="M118.14,736.19c22.08-9.94,46.89-12.87,70.86-10.4,19.46,1.84,39.07,7.76,54.32,20.4-5.35,5.52-11.57,10.15-17.4,15.16-13.71-11.27-31.26-17.09-48.83-18.16-19.24-1.1-39,3.15-55.41,13.52a65.08,65.08,0,0,0-23.87,26c-6,11.91-7.52,25.83-5.23,38.9,3.13,16.74,13.81,31.61,28,40.86C136.57,873,156,877.25,175,877a137.78,137.78,0,0,0,48.06-9.1c.39-16.25.2-32.54.1-48.8-15.29-.15-30.58.23-45.86-.19q.23-8.86,0-17.71c23.21-.33,46.43-.09,69.65-.12V880c-18.25,8.53-38.25,12.67-58.23,14.47-19.9,1.44-40.32.6-59.39-5.71-19.22-6.06-37.42-17.23-49.16-33.89-17.82-24.63-19-60.35-2.13-85.78C87.57,754.23,102.2,743.29,118.14,736.19Z" transform="translate(-23 -37.95)" fill="#000"/><path d="M827.46,725.66c23.67-2.23,48.25.65,69.8,11.14,16.85,8,31.72,20.87,40.31,37.58,9.31,17.55,10.93,38.75,5.49,57.75a78.85,78.85,0,0,1-24.58,37.36c-16.83,14.38-38.49,22.27-60.31,24.73-19.63,1.91-39.82.6-58.55-5.86-16.76-5.76-32.53-15.34-43.87-29.13s-17.9-31.4-17.55-49.23c-.39-19.52,7.55-38.81,20.84-53C776.73,738.25,802.11,728.17,827.46,725.66Zm3,18c-16.32,1.88-32.41,8.05-44.88,18.91a63.37,63.37,0,0,0-21.25,37.62,61.82,61.82,0,0,0,4.27,34.2c6.11,14.23,17.66,25.77,31.37,32.79,19,9.9,41.46,11.87,62.31,7.87,19.46-4,38.1-14.85,48.88-31.88A61.65,61.65,0,0,0,915,784c-6.69-14.46-19.06-25.86-33.41-32.53C865.8,743.83,847.76,741.81,830.42,743.66Z" transform="translate(-23 -37.95)" fill="#000"/><path d="M436.77,730c17.08,0,34.15,0,51.23,0,18,.34,36.72.4,53.69,7.33,10.72,4.37,20.68,12.84,23.61,24.43,2.64,10.59,2.27,22.51-3.45,32.07-5.84,9.73-16.15,15.87-26.69,19.35-5.74,2.19-11.91,2.7-17.76,4.43,17.45,22.57,34.66,45.33,52.07,67.93,1.34,1.75,2.62,3.55,3.81,5.43-9.66.06-19.33.29-29-.13-17.69-24-35.78-47.73-53.56-71.68q-15.22-.28-30.46,0c.11,24,.17,47.91,0,71.85q-11.75.09-23.49,0Q436.55,810.51,436.77,730Zm23.52,18.13q.18,26.36,0,52.72c8.57.28,17.15.09,25.72.08,13.39-.29,27.23,0,39.89-5.05,6.41-2.62,12.86-7.23,14.68-14.28,1.78-7.39,1.21-16.16-4.2-22-5.11-5.73-12.68-8.37-20-9.86-11.66-2.16-23.57-1.71-35.36-1.75C474.1,748.09,467.19,747.91,460.29,748.15Z" transform="translate(-23 -37.95)" fill="#000"/><path d="M1124,730c7.89,0,15.8-.2,23.69.14-.28,27,0,53.89-.12,80.84.15,10.55-.71,21.27,1.81,31.62,2.18,10.37,8.12,20.12,17.07,26,7.78,5.29,17.17,7.7,26.48,8.2,8.6.43,17.37.17,25.7-2.25,9.09-2.67,17.59-8.06,23-15.95,6.64-9.44,8.54-21.31,8.7-32.61,0-32,.09-63.91,0-95.87,7.9-.23,15.82-.08,23.74-.1q0,43.5,0,87c0,11.1.48,22.44-2.75,33.21a55.52,55.52,0,0,1-27.88,35.16c-16.86,9.18-36.66,10.46-55.45,9.26-17.15-1.31-34.82-7-47.16-19.4-11.86-11.74-16.94-28.86-16.84-45.24C1124,796.67,1123.85,763.34,1124,730Z" transform="translate(-23 -37.95)" fill="#000"/><path d="M1463.77,730c15.41,0,30.82,0,46.23,0,16.79-.16,34-.19,50.15,4.84,10,3.1,19.64,8.52,25.78,17.19s7.39,19.77,5.94,30a35.43,35.43,0,0,1-11.75,21.12c-12.53,11.14-29.8,14.51-46,15.67-15.6.55-31.21-.06-46.8.34.11,23.94.16,47.9,0,71.84q-11.74.09-23.49,0Q1463.54,810.51,1463.77,730Zm23.52,18.13q.18,26.36,0,52.72c12.57.3,25.15,0,37.73.13,11.16.08,23-1.25,32.54-7.48,12.81-8.15,12.8-29.9,0-38-9.29-6-20.69-7.52-31.54-7.44C1513.09,748.12,1500.19,747.88,1487.29,748.15Z" transform="translate(-23 -37.95)" fill="#000"/></svg>