<svg width="32" height="32" viewBox="0 0 32 32" fill="none" xmlns="http://www.w3.org/2000/svg">
<rect width="32" height="32" rx="6" fill="white"/>
<circle cx="15.82" cy="15.82" r="9.82" fill="#46013B"/>
<path d="M21.2918 14.8969C20.2461 14.8994 19.2261 14.5784 18.3758 13.9793V18.1577C18.3755 18.9316 18.1352 19.687 17.687 20.3228C17.2388 20.9587 16.6041 21.4447 15.8677 21.7158C15.1314 21.987 14.3285 22.0304 13.5663 21.8403C12.8042 21.6501 12.1193 21.2355 11.603 20.6518C11.0868 20.0681 10.7638 19.3432 10.6774 18.574C10.591 17.8048 10.7453 17.028 11.1195 16.3474C11.4937 15.6668 12.0701 15.1148 12.7716 14.7654C13.4732 14.416 14.2663 14.2857 15.0451 14.3919V16.4936C14.6887 16.3832 14.306 16.3865 13.9517 16.5031C13.5974 16.6196 13.2895 16.8433 13.0721 17.1423C12.8546 17.4413 12.7387 17.8003 12.7409 18.1681C12.7431 18.5358 12.8633 18.8934 13.0843 19.1899C13.3053 19.4864 13.6159 19.7065 13.9716 19.8189C14.3273 19.9313 14.7099 19.9302 15.065 19.8157C15.42 19.7013 15.7292 19.4793 15.9484 19.1816C16.1676 18.8838 16.2856 18.5255 16.2856 18.1577V9.98926H18.3758C18.3744 10.163 18.3891 10.3365 18.42 10.5076C18.4926 10.8895 18.6436 11.2528 18.8638 11.5753C19.084 11.8978 19.3687 12.1727 19.7005 12.3831C20.1725 12.6904 20.7259 12.8541 21.2918 12.854V14.8969Z" fill="white"/>
</svg>
