<svg xmlns="http://www.w3.org/2000/svg" viewBox="0 0 200 200"><defs><style>.cls-1{fill:none;stroke:#9a8331;stroke-miterlimit:10;stroke-width:9.56px;}.cls-2{fill:#9a8331;}</style></defs><title>services-icons-production</title><g id="BASE"><circle class="cls-1" cx="100" cy="100.41" r="94"/></g><g id="PRODUCTION"><path class="cls-2" d="M147.94,79.76V154.9a2.82,2.82,0,0,1-2.82,2.82h-8.45v.94a3.76,3.76,0,0,1-7.52,0v-.94H69v.94a3.76,3.76,0,0,1-7.52,0v-.94H53.07a2.82,2.82,0,0,1-2.82-2.82V79.76Zm-26.3,10.33a2.82,2.82,0,0,0-2.82,2.82v7.51h-9.39V92.91a2.82,2.82,0,0,0-5.64,0v7.51H94.4V92.91a2.82,2.82,0,0,0-5.64,0v7.51H79.37V92.91a2.82,2.82,0,0,0-5.64,0v7.51H68.1a2.82,2.82,0,1,0,0,5.64h5.63v9.39H68.1a2.82,2.82,0,1,0,0,5.64h5.63v9.39H68.1a2.82,2.82,0,0,0,0,5.64h5.63v7.51a2.82,2.82,0,0,0,5.64,0v-7.51h9.39v7.51a2.82,2.82,0,1,0,5.64,0v-7.51h9.39v7.51a2.82,2.82,0,1,0,5.64,0v-7.51h9.39v7.51a2.82,2.82,0,1,0,5.64,0v-7.51h5.63a2.82,2.82,0,0,0,0-5.64h-5.63v-9.39h5.63a2.82,2.82,0,1,0,0-5.64h-5.63v-9.39h5.63a2.82,2.82,0,0,0,0-5.64h-5.63V92.91a2.82,2.82,0,0,0-2.82-2.82Zm-2.82,31v9.39h-9.39v-9.39Zm-15,0v9.39H94.4v-9.39Zm-15,0v9.39H79.37v-9.39Zm30.06-15v9.39h-9.39v-9.39Zm-15,0v9.39H94.4v-9.39Zm-15,0v9.39H79.37v-9.39Zm0,0"/><path class="cls-2" d="M145.12,42.19A2.81,2.81,0,0,1,147.94,45V74.12H50.25V45a2.81,2.81,0,0,1,2.82-2.81ZM90.64,49.7a8.46,8.46,0,1,0,8.46,8.45,8.45,8.45,0,0,0-8.46-8.45Zm0,5.64a2.82,2.82,0,1,1-2.82,2.81,2.81,2.81,0,0,1,2.82-2.81ZM69,49.7a8.46,8.46,0,1,0,8.45,8.45A8.46,8.46,0,0,0,69,49.7Zm0,5.64a2.82,2.82,0,1,1-2.82,2.81A2.82,2.82,0,0,1,69,55.34Zm64.81-2.82A2.82,2.82,0,0,0,131,55.34V61a2.82,2.82,0,0,0,5.64,0V55.34a2.82,2.82,0,0,0-2.82-2.82Zm-10.33,0a2.82,2.82,0,0,0-2.82,2.82V61a2.82,2.82,0,0,0,5.64,0V55.34a2.82,2.82,0,0,0-2.82-2.82Zm-10.33,0a2.82,2.82,0,0,0-2.82,2.82V61A2.82,2.82,0,1,0,116,61V55.34a2.81,2.81,0,0,0-2.81-2.82Zm0,0"/></g></svg>