<svg xmlns="http://www.w3.org/2000/svg" viewBox="0 0 200 200"><defs><style>.cls-1{fill:none;stroke:#9a8331;stroke-miterlimit:10;stroke-width:9.56px;}.cls-2{fill:#9a8331;}</style></defs><title>services-icons-day-of-show</title><g id="BASE"><circle class="cls-1" cx="100" cy="100.41" r="94"/></g><g id="DAY_OF_THE_SHOW" data-name="DAY OF THE SHOW"><path class="cls-2" d="M106.31,87.3A3.89,3.89,0,0,1,109.85,90a3.77,3.77,0,0,1-2.59,4.66l-4.81,1.38v44H160v16a2.83,2.83,0,0,1-2.83,2.83H42.09a2.83,2.83,0,0,1-2.83-2.83v-16H94.91V98.23l-.85.25A3.78,3.78,0,1,1,92,91.22l13.21-3.77a4.07,4.07,0,0,1,1.12-.15Zm0,0"/><path class="cls-2" d="M157.15,38.26A2.83,2.83,0,0,1,160,41.09v9.43a2.83,2.83,0,0,1-2.83,2.83h-.94V93h.94A2.83,2.83,0,0,1,160,95.79v38.67h-41.5V95.79A2.83,2.83,0,0,1,121.31,93h14.15V53.35h-13.2v7.07l.84-.3a2.8,2.8,0,0,1,3.6,1.67l3.87,10.37a2.84,2.84,0,0,1-1.71,3.66l-15.94,5.66a2.82,2.82,0,0,1-3.59-1.68l-3.87-10.37a2.82,2.82,0,0,1,1.7-3.65l7.55-2.68V53.35H84.53V63.1l7.55,2.68a2.82,2.82,0,0,1,1.7,3.65L89.92,79.8a2.83,2.83,0,0,1-3.6,1.68L70.38,75.82a2.84,2.84,0,0,1-1.71-3.66l3.87-10.37A2.86,2.86,0,0,1,75.31,60a3,3,0,0,1,.83.17l.85.3V53.35H63.78V93H77.93a2.83,2.83,0,0,1,2.83,2.83v38.67H39.26V95.79A2.83,2.83,0,0,1,42.09,93H43V53.35h-.94a2.83,2.83,0,0,1-2.83-2.83V41.09a2.83,2.83,0,0,1,2.83-2.83ZM60,104.28a9.43,9.43,0,1,0,9.43,9.43A9.43,9.43,0,0,0,60,104.28Zm79.22,0a9.43,9.43,0,1,0,9.44,9.43,9.43,9.43,0,0,0-9.44-9.43Zm9.44-18.86H143V93h5.66Zm-92.43,0H50.58V93h5.66Zm92.43-16H143v8.49h5.66Zm-92.43,0H50.58v8.49h5.66Zm0-16H50.58v8.49h5.66Zm92.43,0H143v8.49h5.66Zm0,0"/></g></svg>