<svg xmlns="http://www.w3.org/2000/svg" viewBox="0 0 200 200"><defs><style>.cls-1{fill:none;stroke:#9a8331;stroke-miterlimit:10;stroke-width:9.56px;}.cls-2{fill:#9a8331;}</style></defs><title>services-icons-rider</title><g id="BASE"><circle class="cls-1" cx="100" cy="100.41" r="94"/></g><g id="RIDER"><path class="cls-2" d="M60,89.68c2.92,11.82,9.6,22,20.25,22s17.33-10.17,20.25-22c4.35-.09,5.54-5,5.76-9.08.21-3.67-1.58-5.6-4.09-6.19-.44-15.63-10.07-22.25-21.92-22.25s-21.45,6.6-21.92,22.17c-2.72.47-4.71,2.41-4.51,6.27C54,84.85,55.27,89.89,60,89.68Z"/><path class="cls-2" d="M130.55,129.71l-25.35-10.3-.16-.06-2.87,14.74h0L88.32,156.9l-5.27-22.43s0,0,0-.05l6.06-10.5c.54-.94.1-1.71-1-1.71H72.34c-1.08,0-1.53.77-1,1.71l6.06,10.5a.09.09,0,0,0,0,.05l-5.27,22.4L58.3,134.09h0l-2.76-14.25-25.59,9.93a5.94,5.94,0,0,0-3.52,5.13v30.74a1.6,1.6,0,0,0,0,.23H134a1.64,1.64,0,0,0,0-.23V134.9A6.07,6.07,0,0,0,130.55,129.71Z"/><path class="cls-2" d="M164.53,40.65H124.58A10.91,10.91,0,0,0,113.7,51.53V91.47a10.92,10.92,0,0,0,10.88,10.88h4.94v14c0,2.06,1.28,2.64,2.84,1.3l17.81-15.28h14.36a10.92,10.92,0,0,0,10.88-10.88V51.53A10.91,10.91,0,0,0,164.53,40.65Z"/></g></svg>